<svg xmlns="http://www.w3.org/2000/svg" width="1200" height="750" viewBox="0 0 1200 750">
  <rect width="1200" height="750" fill="#0d0f13"/>
  <rect x="24" y="24" width="1152" height="702" rx="24" fill="#111319" stroke="#3d3d47"/>
  <rect x="24" y="24" width="1152" height="66" rx="24" fill="#1a1c22"/>
  <path d="M24 66h1152v24H24z" fill="#1a1c22"/>
  <circle cx="57" cy="57" r="7" fill="#cbb3fd"/><circle cx="80" cy="57" r="7" fill="#6fd5c3"/>
  <text x="108" y="53" fill="#f7f5fa" font-family="Inter,system-ui,sans-serif" font-size="15" font-weight="700">Nextcloud Native</text>
  <text x="108" y="71" fill="#8f8d98" font-family="Inter,system-ui,sans-serif" font-size="10">Synthetic product preview</text>
  <rect x="42" y="108" width="205" height="598" rx="16" fill="#101217"/>
  <text x="64" y="143" fill="#777680" font-family="Inter,system-ui,sans-serif" font-size="10" font-weight="700" letter-spacing="1.4">WORKSPACE</text>
  <rect x="54" y="160" width="181" height="42" rx="10" fill="#373044"/>
  <circle cx="76" cy="181" r="8" fill="#cbb3fd"/>
  <text x="96" y="186" fill="#f7f5fa" font-family="Inter,system-ui,sans-serif" font-size="13" font-weight="600">Files</text><rect x="54" y="212" width="181" height="42" rx="10" fill="transparent"/>
  <circle cx="76" cy="233" r="8" fill="#56545e"/>
  <text x="96" y="238" fill="#a8a6b0" font-family="Inter,system-ui,sans-serif" font-size="13" font-weight="600">Photos</text><rect x="54" y="264" width="181" height="42" rx="10" fill="transparent"/>
  <circle cx="76" cy="285" r="8" fill="#56545e"/>
  <text x="96" y="290" fill="#a8a6b0" font-family="Inter,system-ui,sans-serif" font-size="13" font-weight="600">Talk</text><rect x="54" y="316" width="181" height="42" rx="10" fill="transparent"/>
  <circle cx="76" cy="337" r="8" fill="#56545e"/>
  <text x="96" y="342" fill="#a8a6b0" font-family="Inter,system-ui,sans-serif" font-size="13" font-weight="600">Calendar</text><rect x="54" y="368" width="181" height="42" rx="10" fill="transparent"/>
  <circle cx="76" cy="389" r="8" fill="#56545e"/>
  <text x="96" y="394" fill="#a8a6b0" font-family="Inter,system-ui,sans-serif" font-size="13" font-weight="600">Music</text>
  <circle cx="74" cy="665" r="17" fill="#373044"/>
  <text x="74" y="671" text-anchor="middle" fill="#cbb3fd" font-family="Inter,system-ui,sans-serif" font-size="13" font-weight="700">D</text>
  <text x="100" y="660" fill="#f7f5fa" font-family="Inter,system-ui,sans-serif" font-size="11" font-weight="700">Demo Workspace</text>
  <text x="100" y="678" fill="#6fd5c3" font-family="Inter,system-ui,sans-serif" font-size="9">Sample cloud · connected</text>
  <text x="286" y="141" fill="#8f8d98" font-family="Inter,system-ui,sans-serif" font-size="10">Files / Projects</text>
    <text x="286" y="178" fill="#f7f5fa" font-family="Inter,system-ui,sans-serif" font-size="28" font-weight="700">Project workspace</text>
    <rect x="286" y="197" width="590" height="38" rx="11" fill="#1a1c22" stroke="#292b31"/>
    <text x="306" y="221" fill="#777680" font-family="Inter,system-ui,sans-serif" font-size="11">Search this folder</text>
    <rect x="286" y="247" width="590" height="66" rx="13" fill="#1a1c22" stroke="#292b31"/>
      <rect x="304" y="262" width="36" height="36" rx="10" fill="#373044"/>
      <text x="354" y="274" fill="#f7f5fa" font-family="Inter,system-ui,sans-serif" font-size="13" font-weight="700">Trail photos</text>
      <text x="354" y="294" fill="#a8a6b0" font-family="Inter,system-ui,sans-serif" font-size="10">Folder · 24 items</text>
      <text x="852" y="284" text-anchor="end" fill="#8f8d98" font-family="Inter,system-ui,sans-serif" font-size="10">Synced</text><rect x="286" y="329" width="590" height="66" rx="13" fill="#1a1c22" stroke="#292b31"/>
      <rect x="304" y="344" width="36" height="36" rx="10" fill="#373044"/>
      <text x="354" y="356" fill="#f7f5fa" font-family="Inter,system-ui,sans-serif" font-size="13" font-weight="700">Trip notes.md</text>
      <text x="354" y="376" fill="#a8a6b0" font-family="Inter,system-ui,sans-serif" font-size="10">Markdown · 18 KB</text>
      <text x="852" y="366" text-anchor="end" fill="#8f8d98" font-family="Inter,system-ui,sans-serif" font-size="10">Available offline</text><rect x="286" y="411" width="590" height="66" rx="13" fill="#24232e" stroke="#6f5c87"/>
      <rect x="304" y="426" width="36" height="36" rx="10" fill="#373044"/>
      <text x="354" y="438" fill="#f7f5fa" font-family="Inter,system-ui,sans-serif" font-size="13" font-weight="700">Morning ride.mov</text>
      <text x="354" y="458" fill="#a8a6b0" font-family="Inter,system-ui,sans-serif" font-size="10">Video · 1.2 GB</text>
      <text x="852" y="448" text-anchor="end" fill="#cbb3fd" font-family="Inter,system-ui,sans-serif" font-size="10">Uploading 68%</text><rect x="286" y="493" width="590" height="66" rx="13" fill="#1a1c22" stroke="#292b31"/>
      <rect x="304" y="508" width="36" height="36" rx="10" fill="#373044"/>
      <text x="354" y="520" fill="#f7f5fa" font-family="Inter,system-ui,sans-serif" font-size="13" font-weight="700">Packing list.pdf</text>
      <text x="354" y="540" fill="#a8a6b0" font-family="Inter,system-ui,sans-serif" font-size="10">PDF · 2.4 MB</text>
      <text x="852" y="530" text-anchor="end" fill="#8f8d98" font-family="Inter,system-ui,sans-serif" font-size="10">Shared</text>
    <rect x="900" y="130" width="245" height="526" rx="16" fill="#1a1c22" stroke="#292b31"/>
    <rect x="926" y="163" width="193" height="145" rx="14" fill="#24232e"/>
    <text x="1022" y="243" text-anchor="middle" fill="#cbb3fd" font-family="Inter,system-ui,sans-serif" font-size="42">▶</text>
    <text x="926" y="346" fill="#f7f5fa" font-family="Inter,system-ui,sans-serif" font-size="15" font-weight="700">Morning ride.mov</text>
    <text x="926" y="369" fill="#a8a6b0" font-family="Inter,system-ui,sans-serif" font-size="10">Video · 1.2 GB</text>
    <text x="926" y="420" fill="#777680" font-family="Inter,system-ui,sans-serif" font-size="9">TRANSFER</text>
    <rect x="926" y="435" width="193" height="7" rx="4" fill="#292b31"/><rect x="926" y="435" width="131" height="7" rx="4" fill="#cbb3fd"/>
    <text x="926" y="466" fill="#cbb3fd" font-family="Inter,system-ui,sans-serif" font-size="11">Uploading 68%</text>
</svg>
